<svg width="227" height="40" viewBox="0 0 227 40" fill="none" xmlns="http://www.w3.org/2000/svg">
<path d="M8.16 32.352C6.752 32.352 5.51467 32.0213 4.448 31.36C3.38133 30.6773 2.53867 29.696 1.92 28.416C1.32267 27.136 1.024 25.6213 1.024 23.872C1.024 22.1013 1.32267 20.5867 1.92 19.328C2.53867 18.048 3.38133 17.0773 4.448 16.416C5.51467 15.7333 6.752 15.392 8.16 15.392C9.41867 15.392 10.5493 15.6907 11.552 16.288C12.576 16.8853 13.248 17.664 13.568 18.624H13.248L13.6 15.744H19.072C19.008 16.4693 18.944 17.2053 18.88 17.952C18.8373 18.6987 18.816 19.4347 18.816 20.16V32H13.184L13.12 29.248H13.504C13.184 30.1867 12.512 30.944 11.488 31.52C10.4853 32.0747 9.376 32.352 8.16 32.352ZM9.984 28.128C10.944 28.128 11.7227 27.7973 12.32 27.136C12.9173 26.4533 13.216 25.3653 13.216 23.872C13.216 22.3787 12.9173 21.3013 12.32 20.64C11.7227 19.9573 10.944 19.616 9.984 19.616C9.024 19.616 8.24533 19.9573 7.648 20.64C7.05067 21.3013 6.752 22.3787 6.752 23.872C6.752 25.3653 7.04 26.4533 7.616 27.136C8.21333 27.7973 9.00267 28.128 9.984 28.128ZM22.3538 32V20.16C22.3538 19.4347 22.3324 18.6987 22.2898 17.952C22.2471 17.2053 22.1831 16.4693 22.0978 15.744H27.6018L27.9218 18.56H27.5698C28.0391 17.5787 28.7324 16.8107 29.6498 16.256C30.5671 15.68 31.6444 15.392 32.8818 15.392C34.0764 15.392 35.0898 15.68 35.9218 16.256C36.7751 16.8107 37.3938 17.696 37.7778 18.912H37.2338C37.7671 17.8027 38.5351 16.9387 39.5378 16.32C40.5618 15.7013 41.7031 15.392 42.9618 15.392C44.8178 15.392 46.2044 15.9573 47.1218 17.088C48.0391 18.1973 48.4978 19.936 48.4978 22.304V32H42.7698V22.496C42.7698 21.4933 42.6204 20.7893 42.3218 20.384C42.0231 19.9573 41.5431 19.744 40.8818 19.744C40.0498 19.744 39.3991 20.0427 38.9298 20.64C38.4818 21.2373 38.2578 22.0587 38.2578 23.104V32H32.5618V22.496C32.5618 21.4933 32.4018 20.7893 32.0818 20.384C31.7831 19.9573 31.3138 19.744 30.6738 19.744C29.8418 19.744 29.1911 20.0427 28.7218 20.64C28.2738 21.2373 28.0498 22.0587 28.0498 23.104V32H22.3538ZM51.9163 32V20.16C51.9163 19.4347 51.8949 18.6987 51.8523 17.952C51.8096 17.2053 51.7456 16.4693 51.6603 15.744H57.1643L57.4843 18.56H57.1323C57.6016 17.5787 58.2949 16.8107 59.2123 16.256C60.1296 15.68 61.2069 15.392 62.4443 15.392C63.6389 15.392 64.6523 15.68 65.4843 16.256C66.3376 16.8107 66.9563 17.696 67.3403 18.912H66.7963C67.3296 17.8027 68.0976 16.9387 69.1003 16.32C70.1243 15.7013 71.2656 15.392 72.5243 15.392C74.3803 15.392 75.7669 15.9573 76.6843 17.088C77.6016 18.1973 78.0603 19.936 78.0603 22.304V32H72.3323V22.496C72.3323 21.4933 72.1829 20.7893 71.8843 20.384C71.5856 19.9573 71.1056 19.744 70.4443 19.744C69.6123 19.744 68.9616 20.0427 68.4923 20.64C68.0443 21.2373 67.8203 22.0587 67.8203 23.104V32H62.1243V22.496C62.1243 21.4933 61.9643 20.7893 61.6443 20.384C61.3456 19.9573 60.8763 19.744 60.2363 19.744C59.4043 19.744 58.7536 20.0427 58.2843 20.64C57.8363 21.2373 57.6123 22.0587 57.6123 23.104V32H51.9163ZM87.8788 32.352C86.4708 32.352 85.2334 32.0213 84.1668 31.36C83.1001 30.6773 82.2574 29.696 81.6388 28.416C81.0414 27.136 80.7428 25.6213 80.7428 23.872C80.7428 22.1013 81.0414 20.5867 81.6388 19.328C82.2574 18.048 83.1001 17.0773 84.1668 16.416C85.2334 15.7333 86.4708 15.392 87.8788 15.392C89.1374 15.392 90.2681 15.6907 91.2708 16.288C92.2948 16.8853 92.9668 17.664 93.2868 18.624H92.9668L93.3188 15.744H98.7908C98.7268 16.4693 98.6628 17.2053 98.5988 17.952C98.5561 18.6987 98.5347 19.4347 98.5347 20.16V32H92.9028L92.8388 29.248H93.2228C92.9028 30.1867 92.2308 30.944 91.2068 31.52C90.2041 32.0747 89.0948 32.352 87.8788 32.352ZM89.7028 28.128C90.6628 28.128 91.4414 27.7973 92.0388 27.136C92.6361 26.4533 92.9348 25.3653 92.9348 23.872C92.9348 22.3787 92.6361 21.3013 92.0388 20.64C91.4414 19.9573 90.6628 19.616 89.7028 19.616C88.7428 19.616 87.9641 19.9573 87.3668 20.64C86.7694 21.3013 86.4708 22.3787 86.4708 23.872C86.4708 25.3653 86.7588 26.4533 87.3348 27.136C87.9321 27.7973 88.7214 28.128 89.7028 28.128ZM102.073 32V20.192C102.073 19.4453 102.051 18.6987 102.009 17.952C101.966 17.2053 101.902 16.4693 101.817 15.744H107.321L107.929 20.736H107.065C107.278 19.52 107.619 18.5173 108.089 17.728C108.558 16.9387 109.145 16.352 109.849 15.968C110.553 15.584 111.385 15.392 112.345 15.392C112.793 15.392 113.123 15.4133 113.337 15.456C113.571 15.4773 113.817 15.5413 114.073 15.648V20.64C113.539 20.4053 113.113 20.256 112.793 20.192C112.473 20.128 112.057 20.096 111.545 20.096C110.67 20.096 109.955 20.256 109.401 20.576C108.846 20.8747 108.441 21.344 108.185 21.984C107.95 22.624 107.833 23.4453 107.833 24.448V32H102.073ZM218.782 32V26.176H224.702V32H218.782Z" fill="black"/>
<path d="M122.191 32.352C120.783 32.352 119.546 32.0213 118.479 31.36C117.413 30.6773 116.57 29.696 115.951 28.416C115.354 27.136 115.055 25.6213 115.055 23.872C115.055 22.1013 115.354 20.5867 115.951 19.328C116.57 18.048 117.413 17.0773 118.479 16.416C119.546 15.7333 120.783 15.392 122.191 15.392C123.45 15.392 124.581 15.6907 125.583 16.288C126.607 16.8853 127.279 17.664 127.599 18.624H127.279L127.631 15.744H133.103C133.039 16.4693 132.975 17.2053 132.911 17.952C132.869 18.6987 132.847 19.4347 132.847 20.16V32H127.215L127.151 29.248H127.535C127.215 30.1867 126.543 30.944 125.519 31.52C124.517 32.0747 123.407 32.352 122.191 32.352ZM124.015 28.128C124.975 28.128 125.754 27.7973 126.351 27.136C126.949 26.4533 127.247 25.3653 127.247 23.872C127.247 22.3787 126.949 21.3013 126.351 20.64C125.754 19.9573 124.975 19.616 124.015 19.616C123.055 19.616 122.277 19.9573 121.679 20.64C121.082 21.3013 120.783 22.3787 120.783 23.872C120.783 25.3653 121.071 26.4533 121.647 27.136C122.245 27.7973 123.034 28.128 124.015 28.128ZM136.385 32V8.448H142.081V22.304H142.145L147.585 15.744H154.305L146.945 24.448V22.496L154.593 32H147.713L142.145 25.184H142.081V32H136.385ZM155.448 32V20.192C155.448 19.4453 155.426 18.6987 155.384 17.952C155.341 17.2053 155.277 16.4693 155.192 15.744H160.696L161.304 20.736H160.44C160.653 19.52 160.994 18.5173 161.464 17.728C161.933 16.9387 162.52 16.352 163.224 15.968C163.928 15.584 164.76 15.392 165.72 15.392C166.168 15.392 166.498 15.4133 166.712 15.456C166.946 15.4773 167.192 15.5413 167.448 15.648V20.64C166.914 20.4053 166.488 20.256 166.168 20.192C165.848 20.128 165.432 20.096 164.92 20.096C164.045 20.096 163.33 20.256 162.776 20.576C162.221 20.8747 161.816 21.344 161.56 21.984C161.325 22.624 161.208 23.4453 161.208 24.448V32H155.448ZM175.41 32.352C174.002 32.352 172.765 32.0213 171.698 31.36C170.631 30.6773 169.789 29.696 169.17 28.416C168.573 27.136 168.274 25.6213 168.274 23.872C168.274 22.1013 168.573 20.5867 169.17 19.328C169.789 18.048 170.631 17.0773 171.698 16.416C172.765 15.7333 174.002 15.392 175.41 15.392C176.669 15.392 177.799 15.6907 178.802 16.288C179.826 16.8853 180.498 17.664 180.818 18.624H180.498L180.85 15.744H186.322C186.258 16.4693 186.194 17.2053 186.13 17.952C186.087 18.6987 186.066 19.4347 186.066 20.16V32H180.434L180.37 29.248H180.754C180.434 30.1867 179.762 30.944 178.738 31.52C177.735 32.0747 176.626 32.352 175.41 32.352ZM177.234 28.128C178.194 28.128 178.973 27.7973 179.57 27.136C180.167 26.4533 180.466 25.3653 180.466 23.872C180.466 22.3787 180.167 21.3013 179.57 20.64C178.973 19.9573 178.194 19.616 177.234 19.616C176.274 19.616 175.495 19.9573 174.898 20.64C174.301 21.3013 174.002 22.3787 174.002 23.872C174.002 25.3653 174.29 26.4533 174.866 27.136C175.463 27.7973 176.253 28.128 177.234 28.128ZM189.604 32V20.16C189.604 19.4347 189.582 18.6987 189.54 17.952C189.497 17.2053 189.433 16.4693 189.348 15.744H194.852L195.172 18.56H194.82C195.289 17.5787 195.982 16.8107 196.9 16.256C197.817 15.68 198.894 15.392 200.132 15.392C201.326 15.392 202.34 15.68 203.172 16.256C204.025 16.8107 204.644 17.696 205.028 18.912H204.484C205.017 17.8027 205.785 16.9387 206.788 16.32C207.812 15.7013 208.953 15.392 210.212 15.392C212.068 15.392 213.454 15.9573 214.372 17.088C215.289 18.1973 215.748 19.936 215.748 22.304V32H210.02V22.496C210.02 21.4933 209.87 20.7893 209.572 20.384C209.273 19.9573 208.793 19.744 208.132 19.744C207.3 19.744 206.649 20.0427 206.18 20.64C205.732 21.2373 205.508 22.0587 205.508 23.104V32H199.812V22.496C199.812 21.4933 199.652 20.7893 199.332 20.384C199.033 19.9573 198.564 19.744 197.924 19.744C197.092 19.744 196.441 20.0427 195.972 20.64C195.524 21.2373 195.3 22.0587 195.3 23.104V32H189.604Z" fill="#9B51E0"/>
<rect x="1" y="37" width="225" height="3" fill="#FFC700"/>
</svg>
